<svg id="Capa_1" enable-background="new 0 0 512.312 512.312" height="512" viewBox="0 0 512.312 512.312" width="512" xmlns="http://www.w3.org/2000/svg"><g><path d="m87.977 351.162c-31.969 0-57.977 26.007-57.977 57.976s26.008 57.977 57.977 57.977 57.977-26.008 57.977-57.977-26.009-57.976-57.977-57.976zm0 100.953c-23.698 0-42.977-19.28-42.977-42.977s19.279-42.977 42.977-42.977 42.977 19.279 42.977 42.977-19.28 42.977-42.977 42.977z"/><path d="m504.812 169.672c4.143 0 7.5-3.357 7.5-7.5s-3.357-7.5-7.5-7.5h-39.115v-23.307h39.115c4.143 0 7.5-3.357 7.5-7.5s-3.357-7.5-7.5-7.5h-39.115v-17.596c0-13.178-10.722-23.899-23.899-23.899h-31.258c-4.143 0-7.5 3.357-7.5 7.5s3.357 7.5 7.5 7.5h31.258c4.907 0 8.899 3.992 8.899 8.899v356.645c0 4.907-3.992 8.899-8.899 8.899h-285.352c4.667-5.779 8.622-12.155 11.722-19h256.028c4.143 0 7.5-3.357 7.5-7.5v-321.443c0-4.143-3.357-7.5-7.5-7.5h-248.243v-5.696c0-4.521-.344-8.964-1.005-13.304h203.628c4.143 0 7.5-3.357 7.5-7.5s-3.357-7.5-7.5-7.5h-207.294c-11.811-34.667-44.692-59.673-83.305-59.673-48.511 0-87.977 39.466-87.977 87.976v22.522c0 4.143 3.358 7.5 7.5 7.5s7.5-3.357 7.5-7.5v-22.522c0-40.239 32.737-72.977 72.977-72.977s72.977 32.737 72.977 72.977v256.879c-15.82-23.444-42.628-38.891-72.977-38.891s-57.157 15.448-72.977 38.892v-202.394c0-4.143-3.358-7.5-7.5-7.5s-7.5 3.357-7.5 7.5v251.479c0 48.511 39.466 87.977 87.977 87.977 19.885 0 38.247-6.635 52.997-17.802h300.823c13.178 0 23.899-10.722 23.899-23.899v-17.597h39.115c4.143 0 7.5-3.357 7.5-7.5s-3.357-7.5-7.5-7.5h-39.115v-23.307h39.115c4.143 0 7.5-3.357 7.5-7.5s-3.357-7.5-7.5-7.5h-39.115v-23.306h39.115c4.143 0 7.5-3.357 7.5-7.5s-3.357-7.5-7.5-7.5h-39.115v-23.307h39.115c4.143 0 7.5-3.357 7.5-7.5s-3.357-7.5-7.5-7.5h-39.115v-23.307h39.115c4.143 0 7.5-3.357 7.5-7.5s-3.357-7.5-7.5-7.5h-39.115v-23.307h39.115c4.143 0 7.5-3.357 7.5-7.5s-3.357-7.5-7.5-7.5h-39.115v-23.307h39.115c4.143 0 7.5-3.357 7.5-7.5s-3.357-7.5-7.5-7.5h-39.115v-23.306h39.116zm-88.116-45.802v140.718l-152.556-81.423c-4.845-2.584-10.625-2.583-15.467.001l-72.72 38.813v-98.109zm-240.743 208.335 72.721 38.813c2.421 1.292 5.077 1.938 7.733 1.938 2.657 0 5.313-.646 7.735-1.938l59.647-31.835c3.654-1.95 5.036-6.493 3.085-10.147-1.949-3.655-6.496-5.038-10.147-3.085l-59.646 31.834c-.421.225-.924.224-1.344.001l-79.783-42.582v-76.224l79.782-42.581c.421-.225.924-.224 1.344-.001l151.189 80.693-62.07 33.128c-3.654 1.95-5.036 6.493-3.085 10.147 1.35 2.53 3.942 3.971 6.623 3.971 1.191 0 2.4-.285 3.524-.886l63.436-33.856v140.718h-243.326c1.683-6.785 2.582-13.876 2.582-21.175zm-160.953 76.933c0-40.239 32.737-72.977 72.977-72.977s72.977 32.737 72.977 72.977-32.737 72.977-72.977 72.977-72.977-32.738-72.977-72.977z"/></g></svg>